<svg width="24" height="24" viewBox="0 0 24 24" fill="none" xmlns="http://www.w3.org/2000/svg">
<path d="M22 3.41002L21.88 2.15002L20.68 2.55002C18.6234 3.26457 16.4273 3.48384 14.27 3.19002C12.0031 2.83824 9.68292 3.15084 7.59 4.09002C6.48048 4.56247 5.50675 5.30494 4.75747 6.24983C4.0082 7.19473 3.50717 8.31203 3.3 9.50002C3.03138 11.0347 3.16576 12.6129 3.69 14.08C4.02755 13.3181 4.422 12.5827 4.87 11.88C5.8862 10.3849 7.29428 9.1982 8.94 8.45002C10.5254 7.72615 12.2584 7.38367 14 7.45002C12.342 7.70352 10.755 8.29951 9.34 9.20002C8.65747 9.62887 8.03243 10.143 7.48 10.73C6.95166 11.3167 6.48582 11.9569 6.09 12.64C5.34653 14.068 4.81751 15.5978 4.52 17.18C4.19931 18.7674 4.02525 20.3808 4 22H6C6.094 20.5479 6.29116 19.1042 6.59 17.68C7.97743 18.4292 9.53335 18.8113 11.11 18.79C12.5805 18.789 14.0358 18.4932 15.39 17.92C23 14.67 22 3.86002 22 3.41002Z" fill="#76BA99"/>
</svg>
